<?xml version="1.0" encoding="UTF-8"?>
<!-- Created with Inkscape (http://www.inkscape.org/) -->
<svg id="svg7384" width="16.001" height="16.005" version="1.1" xmlns="http://www.w3.org/2000/svg" xmlns:cc="http://creativecommons.org/ns#" xmlns:dc="http://purl.org/dc/elements/1.1/" xmlns:rdf="http://www.w3.org/1999/02/22-rdf-syntax-ns#">
 <metadata id="metadata90">
  <rdf:RDF>
   <cc:Work rdf:about="">
    <dc:format>image/svg+xml</dc:format>
    <dc:type rdf:resource="http://purl.org/dc/dcmitype/StillImage"/>
    <dc:title>Gnome Symbolic Icon Theme</dc:title>
   </cc:Work>
  </rdf:RDF>
 </metadata>
 <title id="title9167">Gnome Symbolic Icon Theme</title>
 <g id="layer9" transform="translate(-83 -215)">
  <g id="g19133" transform="matrix(1 0 0 .99936 -140 40.122)">
   <path id="rect19046" transform="translate(241 217)" d="m-6-36h1v1h-1z" style="fill:#bebebe"/>
   <path id="rect19048-0" transform="translate(241 217)" d="m-7-35h1v1h-1z" style="fill:#bebebe"/>
   <path id="rect19050" transform="translate(241 217)" d="m-5-35h1v1h-1z" style="fill:#bebebe"/>
   <path id="rect19052" transform="translate(241 217)" d="m-6-34h1v1h-1z" style="fill:#bebebe"/>
   <path id="rect19054" transform="translate(241 217)" d="m-7-33h1v1h-1z" style="fill:#bebebe"/>
   <path id="rect19056" transform="translate(241 217)" d="m-5-33h1v0.15234l-0.35547 0.84766h-0.64453z" style="fill:#bebebe"/>
   <path id="rect19058" transform="translate(241 217)" d="m-4-36h1v0.73047l-0.10547 0.26953h-0.89453z" style="fill:#bebebe"/>
   <path id="rect19060" transform="translate(241 217)" d="m-6-32h1v1h-1z" style="fill:#bebebe"/>
   <path id="rect19062" transform="translate(241 217)" d="m-7-31h1v1h-1z" style="fill:#bebebe"/>
   <path id="rect19064" transform="translate(241 217)" d="m-6-30h0.81641l-0.41016 1h-0.40625z" style="fill:#bebebe"/>
   <path id="rect19066" transform="translate(241 217)" d="m-7-29h1v0.96094l-0.011719 0.039063h-0.98828z" style="fill:#bebebe"/>
   <path id="rect19068" transform="translate(241 217)" d="m-5-31h0.23438l-0.23438 0.55859z" style="fill-opacity:.36471;fill:#bdbdbd"/>
   <path id="rect19070" transform="translate(241 217)" d="m-4-34h0.47266l-0.41406 1h-0.058594z" style="fill-opacity:.36471;fill:#bdbdbd"/>
   <path id="rect19072" transform="translate(241 217)" d="m-3-37h0.72111l-0.42032 1h-0.30078z" style="fill-opacity:.36471;fill:#bdbdbd"/>
   <path id="rect19074" transform="translate(241 217)" d="m-3-39h0.54297c0.21875 0.19271 0.42969 0.57292 0.44922 1h-0.99219z" style="fill:#bebebe"/>
   <path id="rect19076" transform="translate(241 217)" d="m-4-39.738 1 0.41797v0.32031h-1z" style="fill:#bebebe"/>
   <path id="rect19078" transform="translate(241 217)" d="m-7-41 1 0.42188v0.57812h-1z" style="fill:#bebebe"/>
   <path id="rect19082" transform="translate(241 217)" d="m-7-27h0.57422c-0.14603 0.37199-0.45127 0.64955-0.58203 0.72266z" style="fill-opacity:.36471;fill:#bdbdbd"/>
   <path id="rect19119" transform="translate(241 217)" d="m-6-40h1v1h-1z" style="fill:#bebebe"/>
   <path id="rect19121" transform="translate(241 217)" d="m-7-39h1v1h-1z" style="fill:#bebebe"/>
   <path id="rect19123" transform="translate(241 217)" d="m-5-39h1v1h-1z" style="fill:#bebebe"/>
   <path id="rect19125" transform="translate(241 217)" d="m-6-38h1v1h-1z" style="fill:#bebebe"/>
   <path id="rect19127" transform="translate(241 217)" d="m-4-38h1v1h-1z" style="fill:#bebebe"/>
   <path id="rect19129" transform="translate(241 217)" d="m-5-37h1v1h-1z" style="fill:#bebebe"/>
   <path id="rect19131" transform="translate(241 217)" d="m-7-37h1v1h-1z" style="fill:#bebebe"/>
  </g>
  <path id="path18996" d="m84.25 215.01c-0.70756 0.15767-1.25 0.86404-1.25 1.6864v12.586c0 0.93986 0.73509 1.7177 1.5938 1.7177h7.8126c0.85868 0 1.5938-0.7778 1.5938-1.7177v-12.586c0-0.93986-0.73509-1.6864-1.5938-1.6864h-7.8126c-0.10736 0-0.24267-0.0225-0.34376 0zm1.0625 0.99936h0.37501l1.3125 2.9981h-0.59375l-0.40626-0.99936h-1l-0.37501 0.99936h-0.62501l1.3125-2.9981zm0.1875 0.6246-0.40625 0.99936h0.81251l-0.40626-0.99936zm1.25 3.3728c0.96654 0 1.75 0.74236 1.75 1.6864 0-0.94407 0.78349-1.6864 1.75-1.6864 0.96652 0 1.75 0.74236 1.75 1.6864 0 0.44866-0.17924 0.88178-0.46875 1.1867-0.0152 0.0158-0.0156 0.016-0.0312 0.0312l-3 3.0918-2.8438-2.9981c-0.1211-0.0977-0.19074-0.21786-0.28125-0.34353-0.20026-0.27797-0.375-0.60242-0.375-0.96813 0-0.94408 0.7835-1.6864 1.75-1.6864zm3.25 6.9955h0.625l0.37501 0.99936h1l0.40626-0.99936h0.59376l-1.3125 2.9981h-0.37501l-1.3125-2.9981zm1.0938 1.3741 0.40626 0.99937 0.40625-0.99937h-0.81251z" style="fill:#bebebe"/>
  <path id="path19008" d="m96 217.01h0.37501l-0.37501-0.15615-2.5938-1.093 0.12501 14.241-1.0156 0.95251c0.9395 0.15886 1.7235-0.14618 2.0469-0.92128l4.3126-10.4c0.3234-0.7751-0.0449-1.6213-0.78126-1.905l-1.7188-0.71829m-0.37501 0v-0.15615" style="fill-opacity:.36471;fill:#bdbdbd"/>
  <path id="path19306" d="m94 230s4e-3 -0.12102 0-1.0072c0 0.6664-0.0502 0.76696-0.15625 1.0072z" style="fill-opacity:.36471;fill:#bdbdbd"/>
  <path id="path19308" d="m93.281 215.41v0.53125l0.03125 13.688-1.0625 0.71875-0.90625 0.59375 1.0625 0.0625s0.23881 0.0108 0.53125 0 0.64694-0.0477 0.9375-0.15625c0.47406-0.17704 0.89926-0.50086 1.0938-1l3.9062-10.031c0.34858-0.89466-0.05472-1.8826-0.875-2.25-0.0072-3e-3 0.0073-0.0281 0-0.0312h-0.03125l-1.5312-0.6875-0.34375-0.15625-2.3438-1.0625-0.46875-0.21875zm0.6875 1.0625 1.8438 0.84375 0.34375 0.15625 1.5312 0.6875h0.03125c0.47772 0.19713 0.72851 0.81975 0.5 1.4062l-3.875 10.031c-0.046271 0.11875-0.22904 0.17998-0.34375 0.28125v-0.0312l-0.03125-13.375z" style="block-progression:tb;color:#000000;fill:#bebebe;text-indent:0;text-transform:none"/>
 </g>
</svg>
