<?xml version="1.0" encoding="UTF-8"?>
<svg width="16" height="16" xmlns="http://www.w3.org/2000/svg">
 <path d="M3.715 1A2.732 2.732 0 0 0 1 3.715v9.57A2.732 2.732 0 0 0 3.715 16h9.57A2.732 2.732 0 0 0 16 13.285v-9.57A2.732 2.732 0 0 0 13.285 1zm0 2H8v5H3V3.715C3 3.302 3.302 3 3.715 3zM9 3h4.285c.413 0 .715.302.715.715v9.57a.693.693 0 0 1-.715.715H9V7.75zM4 5v1h3V5H5zM3 9h5v5H3.715A.693.693 0 0 1 3 13.285V9.707zm2 1v1H4v1h1v1h1v-1h1v-1H6v-1zm5 0v1h3v-1zm0 2v1h3v-1z" fill="#241f31" font-family="sans-serif" font-weight="400" overflow="visible" style="font-feature-settings:normal;font-variant-alternates:normal;font-variant-caps:normal;font-variant-ligatures:normal;font-variant-numeric:normal;font-variant-position:normal;isolation:auto;mix-blend-mode:normal;shape-padding:0;text-decoration-color:#000;text-decoration-line:none;text-decoration-style:solid;text-indent:0;text-orientation:mixed;text-transform:none" white-space="normal"/>
</svg>
