<?xml version="1.0" encoding="UTF-8"?>
<!-- Created with Inkscape (http://www.inkscape.org/) -->
<svg id="svg7384" width="16" height="16" version="1.1" xmlns="http://www.w3.org/2000/svg" xmlns:cc="http://creativecommons.org/ns#" xmlns:dc="http://purl.org/dc/elements/1.1/" xmlns:osb="http://www.openswatchbook.org/uri/2009/osb" xmlns:rdf="http://www.w3.org/1999/02/22-rdf-syntax-ns#">
 <metadata id="metadata90">
  <rdf:RDF>
   <cc:Work rdf:about="">
    <dc:format>image/svg+xml</dc:format>
    <dc:type rdf:resource="http://purl.org/dc/dcmitype/StillImage"/>
    <dc:title>Gnome Symbolic Icon Theme</dc:title>
   </cc:Work>
  </rdf:RDF>
 </metadata>
 <title id="title9167">Gnome Symbolic Icon Theme</title>
 <g id="layer9" transform="translate(-423 145)">
  <path id="rect1105-3" transform="translate(423 -145)" d="m4.373 1c-0.76708 0-1.3848 0.53132-1.3848 1.1914v11.617c0 0.66008 0.61769 1.1914 1.3848 1.1914h6.2305c0.76708 0 1.3848-0.53132 1.3848-1.1914v-11.617c0-0.66008-0.61769-1.1914-1.3848-1.1914h-6.2305zm2.6152 2.3809 1.3281 1.1914-0.32812 0.074219c0 0.58931-0.1145 1.4463-0.32227 2.3477l2.3809 0.0058594 0.29102-0.38477 0.66211 1.3848h-2.252c0 0.98551 1.2402 2 1.2402 2v1.6895c1e-7 0-1.8162-0.38689-1.9512-3.6895h-0.64648c-0.49327 1.5768-1.2863 3.0772-2.4023 3.4141l0.011719-1.4414c0.6439-0.38517 1.0832-1.1026 1.3848-1.9727h-1.9355l-0.1875-1.0137 2.3965 0.0058594c0.25083-1.1703 0.33008-2.475 0.33008-3.6113z" style="enable-background:new;paint-order:normal"/>
 </g>
</svg>
