<?xml version="1.0" encoding="UTF-8"?>
<svg width="16" height="16" version="1.0" xmlns="http://www.w3.org/2000/svg">
 <path d="m4 1c-1.645 0-3 1.355-3 3v8c0 1.645 1.355 3 3 3h8c1.645 0 3-1.355 3-3v-8c0-1.645-1.355-3-3-3h-8zm0 2h8c0.571 0 1 0.429 1 1v8c0 0.571-0.429 1-1 1h-8c-0.571 0-1-0.429-1-1v-8c0-0.571 0.429-1 1-1zm4 1a4 4 0 0 0-4 4 4 4 0 0 0 4 4 4 4 0 0 0 4-4 4 4 0 0 0-4-4zm0 1a3 3 0 0 1 3 3 3 3 0 0 1-3 3 3 3 0 0 1-3-3 3 3 0 0 1 3-3zm0 1.5c-0.75 0-1.5 0.5-1.5 1.5 0 2 3 2 3 0 0-1-0.75-1.5-1.5-1.5z"/>
</svg>
